<svg id="Layer_2" data-name="Layer 2" xmlns="http://www.w3.org/2000/svg" xmlns:xlink="http://www.w3.org/1999/xlink" viewBox="0 0 198.21 196">
            <g id="Layer_2-2" data-name="Layer 2">
                <g>
                    <polygon fill="#b91c1c" points="135 0 198.21 0 198.21 63.04 180.72 63.04 181 17 151 17 135 0" />
                    <polygon fill="#b91c1c" points="124 194.04 198 194 198 125 180 125 179 179 138.02 179.02 124 194.04" />
                    <path fill="#b91c1c" d="m135,45s-5-25-23.7-26c-5.92-.32-59.4.24-59.48,0-18.13,0-32.82,14.69-32.82,32.82v94.6c0,16.89,13.69,30.58,30.58,30.58h49.42l14.5-13,17.02-17.5c9.01-10,7.01-21.75,7.01-21.75h17.64v5.75c-1.84,11.5-3.91,16-3.91,16-4.26,8.5-13.68,17.5-13.68,17.5l-13.16,13-20.45,19h-46.66c-31.65,0-57.31-25.66-57.31-57.31V58.31C0,26.66,25.66,1,57.31,1h56.69c2.72.77,15,3,26,18,0,0,1.82,1.82,8.95,12.44.66.98,1.22,2.04,1.65,3.15,3.21,8.26,4.95,20.04,4.57,28.85h-17.59l-2.58-18.43" />
                    <path fill="#b91c1c" d="m54.83,74.96l2,48.08c0,13.23,11.17,22.96,22.97,23.46h34.7l-16.31,17.5h-18.34c-23.76,0-43.02-19.26-43.02-43.01v-43.98c0-23.75,19.26-43.01,43.02-43.01h40.07v17h-41.12c-13.24,0-23.97,10.73-23.97,23.96Z" />
                </g>
            </g>
        </svg>